<?xml version="1.0" encoding="utf-8"?>
<!-- Generator: Adobe Illustrator 19.0.1, SVG Export Plug-In . SVG Version: 6.00 Build 0)  -->
<svg version="1.1" id="Layer_1" xmlns="http://www.w3.org/2000/svg" xmlns:xlink="http://www.w3.org/1999/xlink" x="0px" y="0px"
	 viewBox="0 0 48.2 48.2" style="enable-background:new 0 0 48.2 48.2;" xml:space="preserve">
<style type="text/css">
	.st0{fill:#E85E3D;}
</style>
<g>
	<path class="st0" d="M24.1,35.1c6,0,11-4.9,11-11s-4.9-11-11-11s-11,4.9-11,11S18,35.1,24.1,35.1z M14.6,24.1
		c0-5.2,4.3-9.5,9.5-9.5s9.5,4.3,9.5,9.5s-4.3,9.5-9.5,9.5S14.6,29.3,14.6,24.1z"/>
	<path class="st0" d="M18.9,21.6c0.5-0.6,1.6-0.6,2.1,0c0.1,0.2,0.4,0.3,0.6,0.3c0.2,0,0.3-0.1,0.5-0.2c0.3-0.3,0.4-0.7,0.1-1
		c-0.5-0.6-1.3-1-2.2-1c-0.8,0-1.6,0.4-2.2,1c-0.3,0.3-0.2,0.8,0.1,1C18.2,21.9,18.7,21.9,18.9,21.6z"/>
	<path class="st0" d="M27.1,21.6c0.5-0.6,1.6-0.6,2.1,0c0.1,0.2,0.4,0.3,0.6,0.3c0.2,0,0.3-0.1,0.5-0.2c0.3-0.3,0.4-0.7,0.1-1
		c-0.5-0.6-1.3-1-2.2-1s-1.6,0.4-2.2,1c-0.3,0.3-0.2,0.8,0.1,1C26.4,21.9,26.9,21.9,27.1,21.6z"/>
	<path class="st0" d="M19.1,25.5c-0.1-0.4-0.5-0.7-0.9-0.6c-0.4,0.1-0.7,0.5-0.6,0.9c0.6,3.1,3.3,5.3,6.4,5.3c3.1,0,5.9-2.2,6.4-5.3
		c0.1-0.4-0.2-0.8-0.6-0.9c-0.4-0.1-0.8,0.2-0.9,0.6c-0.5,2.4-2.6,4.1-5,4.1C21.7,29.6,19.5,27.9,19.1,25.5z"/>
</g>
</svg>
