<?xml version="1.0" encoding="utf-8"?>
<!-- Generator: Adobe Illustrator 19.0.1, SVG Export Plug-In . SVG Version: 6.00 Build 0)  -->
<svg version="1.1" id="Layer_1" xmlns="http://www.w3.org/2000/svg" xmlns:xlink="http://www.w3.org/1999/xlink" x="0px" y="0px"
	 viewBox="0 0 48.2 48.2" style="enable-background:new 0 0 48.2 48.2;" xml:space="preserve">
<style type="text/css">
	.st0{fill:#E85E3D;}
</style>
<g>
	<path class="st0" d="M24.1,35.1c6,0,11-4.9,11-11s-4.9-11-11-11s-11,4.9-11,11S18,35.1,24.1,35.1z M14.6,24.1
		c0-5.2,4.3-9.5,9.5-9.5s9.5,4.3,9.5,9.5s-4.3,9.5-9.5,9.5S14.6,29.3,14.6,24.1z"/>
	<circle class="st0" cx="20.8" cy="20.8" r="1.4"/>
	<circle class="st0" cx="27.4" cy="20.8" r="1.4"/>
	<path class="st0" d="M19.6,29.7h8.9c0.4,0,0.7-0.3,0.7-0.7c0-0.4-0.3-0.7-0.7-0.7h-8.9c-0.4,0-0.7,0.3-0.7,0.7
		C18.9,29.4,19.2,29.7,19.6,29.7z"/>
</g>
</svg>
