<?xml version="1.0" encoding="utf-8"?>
<!-- Generator: Adobe Illustrator 19.0.1, SVG Export Plug-In . SVG Version: 6.00 Build 0)  -->
<svg version="1.1" id="Layer_1" xmlns="http://www.w3.org/2000/svg" xmlns:xlink="http://www.w3.org/1999/xlink" x="0px" y="0px"
	 viewBox="0 0 48.2 48.2" style="enable-background:new 0 0 48.2 48.2;" xml:space="preserve">
<style type="text/css">
	.st0{fill:#E85E3D;}
</style>
<g>
	<path class="st0" d="M24.1,35.1c6,0,11-4.9,11-11c0-6-4.9-11-11-11s-11,4.9-11,11C13.1,30.1,18,35.1,24.1,35.1z M24.1,14.6
		c5.2,0,9.5,4.3,9.5,9.5c0,5.2-4.3,9.5-9.5,9.5s-9.5-4.3-9.5-9.5C14.6,18.9,18.9,14.6,24.1,14.6z"/>
	<circle class="st0" cx="20.8" cy="20.8" r="1.4"/>
	<circle class="st0" cx="27.4" cy="20.8" r="1.4"/>
	<path class="st0" d="M24.1,31.1c1.9,0,3.8-0.9,5-2.4c0.3-0.3,0.2-0.8-0.1-1c-0.3-0.3-0.8-0.2-1,0.1c-1,1.2-2.4,1.8-3.9,1.8
		c-1.5,0-2.9-0.7-3.9-1.8c-0.3-0.3-0.7-0.4-1-0.1c-0.3,0.3-0.4,0.7-0.1,1C20.3,30.2,22.2,31.1,24.1,31.1z"/>
</g>
</svg>
